<?xml version="1.0" encoding="utf-8"?>
<svg viewBox="0 0 148 148" width="148px" height="148px" xmlns="http://www.w3.org/2000/svg" xmlns:bx="https://boxy-svg.com">
  <g transform="matrix(1.017665, 0, 0, 1.017658, 5.468932, 6.124266)" bx:origin="0 0">
    <path fill="#008CD4" d="M 122.621 11.392 L 34.311 -4.18 C 23.895 -6.018 13.871 1.004 12.034 11.418 L -3.538 99.729 C -5.374 110.145 1.644 120.168 12.06 122.006 L 100.37 137.578 C 110.786 139.414 120.811 132.392 122.647 121.978 L 138.219 33.667 C 140.057 23.253 133.037 13.227 122.621 11.392" bx:origin="0.000003 0.000002"/>
  </g>
  <path d="M 50.361 105.407 C 50.074 111.754 44.689 116.897 38.34 116.897 C 31.988 116.897 27.07 111.754 27.356 105.407 C 27.643 99.061 33.026 93.918 39.381 93.918 C 45.729 93.921 50.647 99.061 50.361 105.407 Z M 29.369 60.936 L 28.597 77.954 C 49.989 78.173 66.573 95.522 65.826 116.897 L 82.867 116.897 C 84.04 86.086 60.208 61.155 29.369 60.936 Z M 29.907 49.021 C 67.326 49.184 96.28 79.422 94.693 116.897 L 111.733 116.897 C 113.746 70.094 77.524 32.162 30.678 32 L 29.907 49.021 Z" style="fill: rgb(255, 255, 255);" transform="matrix(0.989531, 0.14432, -0.14432, 0.989531, 11.472819, -9.262181)"/>
</svg>