<?xml version="1.0" encoding="utf-8"?>
<svg xmlns="http://www.w3.org/2000/svg" viewBox="0 0 148 148">
  <g transform="matrix(1.017665, 0, 0, 1.017658, 5.468932, 6.339382)">
    <title>LetsManage10 tile</title>
    <path d="M 122.621 11.392 L 34.311 -4.18 C 23.895 -6.018 13.871 1.004 12.034 11.418 L -3.538 99.729 C -5.374 110.145 1.644 120.168 12.06 122.006 L 100.37 137.578 C 110.786 139.414 120.811 132.392 122.647 121.978 L 138.219 33.667 C 140.057 23.253 133.037 13.227 122.621 11.392" fill="#008CD4"/>
  </g>
<g transform="translate(26,26),scale(6),rotate(10,8,8)" fill="white"><title>rss</title>
  <path xmlns="http://www.w3.org/2000/svg" d="M5.5 12a1.5 1.5 0 1 1-3 0 1.5 1.5 0 0 1 3 0zm-3-8.5a1 1 0 0 1 1-1c5.523 0 10 4.477 10 10a1 1 0 1 1-2 0 8 8 0 0 0-8-8 1 1 0 0 1-1-1zm0 4a1 1 0 0 1 1-1 6 6 0 0 1 6 6 1 1 0 1 1-2 0 4 4 0 0 0-4-4 1 1 0 0 1-1-1z"/>
</g></svg>
